Coordinates
version=1
nRows=12
nColumns=33
inDegrees=yes

Units are S.I. units (second, meters, Newtons, ...)
Angles are in degrees.

endheader
time	ground_thorax_rot_x	ground_thorax_rot_y	ground_thorax_rot_z	ground_thorax_tx	ground_thorax_ty	ground_thorax_tz	clav_prot_r	clav_elev_r	scapula_abduction_r	scapula_elevation_r	scapula_upward_rot_r	scapula_winging_r	shoulder_elv_r	plane_of_elev_r	axial_rot_r	elbow_flexion_r	pro_sup_r	wrist_flex_r	wrist_dev_r	clav_prot_l	clav_elev_l	scapula_abduction_l	scapula_elevation_l	scapula_upward_rot_l	scapula_winging_l	shoulder_elv_l	plane_of_elev_l	axial_rot_l	elbow_flexion_l	pro_sup_l	wrist_flex_l	wrist_dev_l
      6.12000000	     90.00000000	    -90.00000000	    -90.00000000	   -132.30565089	    891.71576133	     -3.05296116	    -45.00000000	     -4.56462016	    -39.02041782	      7.44082326	    -45.00000000	   1691.59795576	  -2057.70930179	     24.70599089	    179.99999979	    376.63797679	     70.23669113	     23.52621523	      7.03471455	     24.40486014	     39.62587899	    -45.00000000	    -45.00000000	     13.28951683	  -2140.21498471	   -776.35623836	    145.48898390	     12.34331053	    371.93906380	     35.91638616	      7.58616331	    -23.32670718
      6.13000000	     90.00000000	    -90.00000000	    -90.00000000	   -128.04495635	    888.92491514	     -3.22202088	    -45.00000000	     -3.94788438	    -39.36736142	      7.93931079	    -45.00000000	   1691.61315920	  -2058.07646268	     24.49168199	    179.99999979	    376.58633358	     69.56823865	     23.32992463	      7.12945563	     24.57986625	     39.70163864	    -45.00000000	    -45.00000000	     13.10221021	  -2140.03651093	   -776.50420678	    145.75876620	     13.19411546	    371.78541811	     34.29705931	      7.87653695	    -23.30065196
      6.14000000	     90.00000000	    -90.00000000	    -90.00000000	   -123.76970494	    885.88240963	     -3.39001573	    -45.00000000	     -3.30567597	    -39.76629872	      8.64005238	    -45.00000000	   1691.75534425	  -2058.47769294	     24.28630151	    179.99999979	    376.54348280	     68.76494262	     23.13119084	      7.23381169	     24.76759655	     39.77408697	    -45.00000000	    -45.00000000	     12.95917523	  -2139.81039553	   -776.60706695	    145.95313401	     14.03984623	    371.67400238	     32.45561602	      8.20592829	    -23.28155234
      6.15000000	     90.00000000	    -90.00000000	    -90.00000000	   -119.49787617	    882.60818507	     -3.54930215	    -45.00000000	     -2.65615697	    -40.11054744	      9.27360045	    -45.00000000	   1691.73943725	  -2058.91554712	     24.17997033	    179.99999979	    376.46003536	     67.85466548	     22.91769893	      7.37347881	     24.89926039	     39.85686338	    -45.00000000	    -45.00000000	     12.75025407	  -2139.59952905	   -776.69883952	    146.25417119	     14.75789253	    371.46949294	     30.51498227	      8.53304715	    -23.17633005
      6.16000000	     90.00000000	    -90.00000000	    -90.00000000	   -115.24268269	    879.11634849	     -3.69301669	    -45.00000000	     -1.94788681	    -40.49622560	      9.98179333	    -45.00000000	   1691.85750538	  -2059.27706695	     23.98392875	    179.99999979	    376.29949105	     66.83454310	     22.70852843	      7.54621481	     25.07494605	     39.93222655	    -45.00000000	    -45.00000000	     12.62052164	  -2139.29048790	   -776.74383872	    146.41885053	     15.50120016	    371.36413590	     28.38987628	      8.90307553	    -23.11307542
      6.17000000	     90.00000000	    -90.00000000	    -90.00000000	   -111.02545177	    875.42737701	     -3.81401581	    -45.00000000	     -1.27370917	    -40.86953844	     10.64703149	    -45.00000000	   1691.88619007	  -2059.65084684	     23.85962239	    179.99999979	    376.19142403	     65.70070038	     22.50112504	      7.72892477	     25.21118198	     40.02405829	    -45.00000000	    -45.00000000	     12.43765559	  -2139.01505085	   -776.79755760	    146.67669704	     16.15865923	    371.16017881	     26.19633857	      9.30425250	    -22.99253284
      6.18000000	     90.00000000	    -90.00000000	    -90.00000000	   -106.85994411	    871.55711889	     -3.90575183	    -45.00000000	      0.66772015	    -41.52747346	     11.92747110	    -45.00000000	   1692.84640409	  -2060.11753186	     23.44478715	    179.99999979	    376.06595477	     64.16460609	     22.34392422	      7.89598718	     25.67396678	     40.08544634	    -45.00000000	    -45.00000000	     12.65471493	  -2138.18796731	   -777.14500763	    146.33394896	     17.22062300	    371.00955240	     23.30603505	     10.15667750	    -23.20207075
      6.19000000	     90.00000000	    -90.00000000	    -90.00000000	   -102.75561676	    867.51996103	     -3.96139949	    -45.00000000	      1.36867658	    -41.91540428	     12.63442339	    -45.00000000	   1692.94732337	  -2060.50537188	     23.27262972	    179.99999979	    375.84977989	     62.59517899	     22.11805228	      8.14452447	     25.79948233	     40.16732071	    -45.00000000	    -45.00000000	     12.53409400	  -2137.84001957	   -777.14718602	    146.53848012	     17.75056857	    370.83732112	     20.46092285	     10.72689293	    -23.02715423
      6.20000000	     90.00000000	    -90.00000000	    -90.00000000	    -98.72090994	    863.33623649	     -3.97367414	    -45.00000000	      2.10367261	    -42.25614597	     13.39775764	    -45.00000000	   1693.04134766	  -2060.85322147	     23.13798815	    179.99999979	    375.60894349	     60.97356973	     21.89708825	      8.41254765	     25.94066778	     40.23120328	    -45.00000000	    -45.00000000	     12.48820228	  -2137.47095055	   -777.20739379	    146.77567757	     18.30434453	    370.63326686	     17.64397348	     11.27077058	    -22.78907846
      6.21000000	     90.00000000	    -90.00000000	    -90.00000000	    -94.75797875	    859.02696022	     -3.93460435	    -45.00000000	      2.85070340	    -42.60302883	     14.13361785	    -45.00000000	   1693.12567706	  -2061.15773098	     23.02133186	    179.99999979	    375.36217691	     59.27376989	     21.68729822	      8.69996602	     26.06878976	     40.31390979	    -45.00000000	    -45.00000000	     12.42869671	  -2137.04333011	   -777.22254691	    146.98443173	     18.82075589	    370.42624413	     14.91619361	     11.82656328	    -22.51498429
      6.22000000	     90.00000000	    -90.00000000	    -90.00000000	    -90.86567869	    854.61566906	     -3.83654562	    -45.00000000	      3.55690348	    -42.91470908	     14.87131718	    -45.00000000	   1693.18274610	  -2061.45548314	     22.92478752	    179.99999979	    375.08535048	     57.50557955	     21.47578069	      9.00799593	     26.17832327	     40.39733303	    -45.00000000	    -45.00000000	     12.39302299	  -2136.57783117	   -777.23854389	    147.18076565	     19.32720334	    370.24630720	     12.33031349	     12.35483263	    -22.20527849
      6.23000000	     90.00000000	    -90.00000000	    -90.00000000	    -87.03972197	    850.12734219	     -3.67287608	    -45.00000000	      4.44483798	    -43.31285851	     15.59865393	    -45.00000000	   1693.28977722	  -2061.67362313	     22.84141162	    179.99999979	    374.77735873	     55.59355191	     21.28707988	      9.35410171	     26.34139933	     40.48297832	    -45.00000000	    -45.00000000	     12.31659605	  -2136.03788473	   -777.22205150	    147.33634841	     19.91862624	    369.99705040	      9.87784382	     12.93117556	    -21.86025284
